<?xml version="1.0" encoding="UTF-8"?>
<svg id="Layer_2" data-name="Layer 2" xmlns="http://www.w3.org/2000/svg" viewBox="0 0 554.01 243.21">
  <defs>
    <style>
      .cls-1 {
        fill: #00a651;
      }
    </style>
  </defs>
  <g id="Layer_2-2" data-name="Layer 2">
    <g id="Layer_1-2" data-name="Layer 1-2">
      <g>
        <path class="cls-1" d="M127.7,93.18h0c-4.95-6.84-11.36-12.06-19.05-15.5-7.27-3.26-17.06-6.61-29.09-9.98-11.75-3.37-20.46-6.19-25.88-8.4-5.04-2.05-9.2-4.89-12.36-8.45-2.89-3.25-4.07-7.4-3.61-12.69,.5-5.6,2.71-10.26,6.76-14.22,3.99-3.9,8.36-5.8,13.35-5.8,1.9,0,6.8,.88,19.33,5.08,11,3.66,19.48,5.44,25.9,5.44s13.66-1.87,21.01-5.57c7.39-3.71,13.03-8.34,16.78-13.76l1.59-2.29-6.42-7.04-2.59,2.52c-5.26,5.11-10.92,7.6-17.3,7.6-4.11,0-11-1.33-20.46-3.96-10.16-2.94-17.91-4.37-23.68-4.37-12.42,0-23.84,4.31-33.96,12.81-10.2,8.57-15.91,19.01-16.97,31.03-.79,8.99,1.04,16.45,5.44,22.19,4.22,5.5,9.74,9.75,16.4,12.62,6.25,2.7,15.08,5.71,26.25,8.96,10.91,3.18,19.47,6.1,25.42,8.67,5.55,2.4,10.25,6.06,13.97,10.86,3.53,4.56,4.97,10.73,4.3,18.34-1.02,11.5-6.55,21.7-16.45,30.33-9.94,8.67-22.01,13.06-35.86,13.06-12.91,0-23.38-3.46-31.13-10.28-7.63-6.72-10.94-14.48-10.12-23.73,.63-7.09,3.38-13.02,8.42-18.11,4.95-5,10.65-7.42,17.43-7.42,5.77,0,10.38,1.55,14.09,4.73,3.45,2.97,4.94,6.55,4.55,10.95-.32,3.61-1.66,6.52-4.1,8.89-2.38,2.31-5.13,3.44-8.4,3.44-2.91,0-5.43-1.25-7.71-3.82l-1.83-2.07-8.67,4.62,1.31,2.97c4.3,9.72,11.82,14.65,22.35,14.65,6.31,0,11.97-2.12,16.81-6.3,4.9-4.23,7.68-9.7,8.26-16.25,.83-9.44-2.75-17.67-10.66-24.44-7.65-6.56-17.49-9.88-29.24-9.88s-20.86,3.37-28.61,10.01c-7.81,6.7-12.22,15.19-13.1,25.24-1.2,13.53,3.93,25.31,15.23,35.02,11.05,9.5,25.72,14.31,43.6,14.31,19.51,0,36.67-6.38,51.03-18.95,14.4-12.61,22.43-27.28,23.87-43.61,.99-11.16-1.1-20.39-6.19-27.43v-.02Z"/>
        <polygon class="cls-1" points="296.45 103.99 318.63 100.9 320.41 80.27 298.5 82.84 296.45 103.99"/>
        <path class="cls-1" d="M551.69,119.75c-.7-1.04-1.69-2.16-3.04-3.11-2.98-2.09-6.13-2.21-7.85-2.27-5.28-.2-14.15,2.9-23.81,9.42,.37-4.22,.75-8.43,1.12-12.65l-19.99,9.2-.47,1.48c-2.74,8.65-8.37,18.52-16.73,29.33-4.1,5.09-7.83,9.04-11.08,11.73-4.06,3.37-5.48,3.55-5.46,3.55h-.07c-.01-1,.04-2.78,.32-5.94l4.4-49.77-15.66,7.66c-4.17-2.32-8.55-3.5-13.02-3.5-7.08,0-15.2,3.48-24.83,10.63-8.6,6.39-17.13,15.13-25.34,25.98-4.36,5.37-8.08,9.32-11.05,11.76-2.58,2.11-5.12,3.18-7.54,3.18-.3,0-1.08,0-2.2-1.7-1-1.51-1.41-3.07-1.26-4.75,.66-7.41,2.76-14.29,6.27-20.44,3.62-6.37,8.32-12.79,13.96-19.08l2.55-2.84-7.5-5.65-2.15,2.12c-2.9,2.86-6.03,4.25-9.55,4.25-4.15,0-9.97-1.82-17.31-5.41l-3.13-1.53-1.54,3.13c-6.75,13.69-14.42,26.21-22.77,37.19-11.72,13.61-15.78,14.66-16.62,14.71-.11-.92-.19-3.21,.29-8.63l4.15-46.92-20.35,10.3-.45,1.4c-2.93,9.17-8.29,18.81-15.94,28.65-7.34,9.17-11.13,12.5-13.03,13.68-1.72,1.07-3.57,1.88-5.49,2.4l4.26-70.17c15.61-21.71,26.34-38.21,31.9-49.03,5.76-11.21,9.06-21.26,9.82-29.88,.49-5.5-.69-9.85-3.5-12.92-2.96-3.23-7.58-4.87-13.75-4.87-9.42,0-18.23,4.25-26.19,12.63-7.83,8.25-12.28,17.88-13.23,28.65l-5.07,79.36c-.17,.49-1.01,2.51-5.16,9.82-3.6,6.32-6.34,10.94-8.17,13.72-1.56,2.38-3.17,4.74-4.79,7.01-3.95,4.87-7.55,8.65-10.69,11.25-4.06,3.37-5.48,3.55-5.46,3.55h-.07c-.02-1,.04-2.78,.32-5.94l4.4-49.77-15.66,7.66c-4.17-2.32-8.55-3.5-13.02-3.5-7.08,0-15.2,3.48-24.83,10.63-9.16,6.8-18.22,16.26-26.94,28.11l-2.06,2.81,9.51,7.07,2.58-3.32c.27,6,1.97,11.07,5.08,15.09,4.17,5.42,10.19,8.16,17.88,8.16,5.08,0,9.78-1.1,13.98-3.28,2.7-1.4,5.7-3.68,9.13-6.95,.34,2.27,.98,4.01,1.93,5.33,2.06,2.82,5.48,4.25,10.14,4.25,10.46,0,21.25-7.74,32.97-23.63,2.24-2.8,4.36-5.7,6.32-8.63l-6.65,59.26c-1.31,14.81-5.12,22.32-11.33,22.32-2.18,0-3.74-.68-4.91-2.15-1.27-1.59-1.79-3.5-1.59-5.84,.02-.18,.12-.91,.86-2.71l.89-2.21-5.98-5.67-15.9,14.45,1.37,2.43c4.79,8.5,12.17,12.81,21.95,12.81,8.96,0,16.85-3.34,23.46-9.93,6.52-6.51,10.31-15.2,11.25-25.83l3.66-25.42c9.49-1.46,19.22-9.31,29.71-23.97,1.13-1.4,2.2-2.79,3.19-4.15l-.73,8.27c-.61,6.85-.32,11.65,.87,14.67,1.55,3.94,5.47,5.93,11.65,5.93,4.9,0,10.26-2.14,16.41-6.55,4.47-3.21,9.04-7.59,13.56-13.01l1.77-2.01c7.4-8.4,13.72-17.13,18.8-25.94,2.25,.59,4.53,.86,6.65,.84-6.9,9.06-10.76,17.74-11.47,25.81-.62,7.05,.72,12.43,3.99,16,2.95,3.22,7.32,4.86,12.99,4.86,9.89,0,19.8-6.35,30.26-19.42l.18,.13,2.58-3.32c.27,6,1.97,11.07,5.08,15.09,4.17,5.42,10.19,8.16,17.88,8.16,5.08,0,9.78-1.1,13.98-3.28,2.7-1.4,5.69-3.67,9.13-6.95,.34,2.27,.98,4.01,1.93,5.33,2.06,2.82,5.47,4.25,10.14,4.25,10.17,0,20.63-7.3,31.96-22.29,2.11-2.47,4.06-4.94,5.82-7.37l-3.09,34.92,20.97-12.71,2.14-24.25c-.8-8.91,3.42-16.01,8.82-17.35,2.86-.71,7.73-.22,10.26,3.32,1.63,2.28,1.59,4.85,1.5,5.94-1.86,13.87-3.71,27.75-5.57,41.62,6.99-3.25,13.98-6.51,20.97-9.76l2.98-33.86c1.28-14.51-.32-18.98-1.86-21.25v.02ZM269.38,33.73c.57-6.44,2.43-11.65,5.52-15.49,2.88-3.57,5.78-5.3,8.89-5.3,2.01,0,2.64,.69,2.85,.92,.58,.64,1.5,2.38,1.1,6.94-1.12,12.61-8.37,29.25-21.58,49.47l3.23-36.54h-.01Zm-79.08,120.56c-.22,.4-1.18,1.92-4.81,5.71-3.03,3.16-6.06,4.76-9,4.76-3.96,0-6.82-1.21-8.76-3.71-2.05-2.64-2.85-6.62-2.39-11.84,.56-6.34,2.79-11.48,6.81-15.72,3.89-4.1,7.81-6.09,12-6.09,3.3,0,6,1,8.26,3.06l-2.11,23.84h0Zm254.91,0c-.22,.4-1.18,1.92-4.82,5.71h0c-3.03,3.16-6.06,4.76-9,4.76-3.96,0-6.83-1.21-8.76-3.71-2.05-2.64-2.85-6.62-2.39-11.84,.56-6.34,2.79-11.48,6.81-15.72,3.89-4.1,7.81-6.09,12-6.09,3.3,0,6,1,8.26,3.06l-2.11,23.84h.01Z"/>
      </g>
    </g>
  </g>
</svg>