<?xml version="1.0" encoding="UTF-8"?>
<svg id="Layer_2" data-name="Layer 2" xmlns="http://www.w3.org/2000/svg" viewBox="0 0 553.76 164.04">
  <defs>
    <style>
      .cls-1 {
        fill: #601feb;
      }
    </style>
  </defs>
  <g id="Layer_2-2" data-name="Layer 2">
    <g id="Layer_1-2" data-name="Layer 1-2">
      <g>
        <path class="cls-1" d="M140.49,50.95c-7.74-2.97-15.48-5.94-23.21-8.91-1.33,8.83-2.66,17.66-3.99,26.5,7.27,3.28,14.54,6.57,21.81,9.85,1.8-9.14,3.6-18.29,5.39-27.43h0Z"/>
        <path class="cls-1" d="M34.82,9.68c-5.78,4.65-8.66,10-12.19,16.57-8.41,15.64-10.28,30.51-10.66,39.7,7.97-2.19,15.94-4.38,23.92-6.57-.24-1.77-3.4-28.15,13.85-40.47,2-1.43,9.33-6.65,17.82-5,13.41,2.6,22.24,20.51,18.98,34.69-2.33,10.15-10.25,15.81-11.64,16.76-7.32,5.06-12.54,4.3-28.13,6-10.76,1.17-22.03,2.22-30.35,8.97-8.68,7.04-10.71,17.38-13.86,33.39-1.77,9.01-3.48,22.52-2,39.28,.06,1.66,.13,3.33,.19,4.99,10.05,3.31,43.3,12.97,71.25-2.46,6.15-3.4,15.57-8.77,19.7-19.7,4.16-11.01,.49-21.66-1.88-28.61-4.17-12.2-11.35-20.33-15.92-24.7,3.38-1.01,8.42-2.92,13.6-6.72,2.92-2.14,16.78-12.86,18.29-31.89,.22-2.76,1.23-19.04-10.32-31.42-15.97-17.11-45.21-15.24-60.65-2.81Zm27.8,136.93c-10.51,7.38-25.96,6.56-37.47-2.53-1.67-7.8-2.14-14.74-2.06-20.52,.16-12.21,.76-25.39,9.39-31.1,9.52-6.29,25.91-1.42,34.37,8.66,10.54,12.57,10.39,35.23-4.22,45.49h0Z"/>
        <path class="cls-1" d="M236.08,50.95c-7.74-2.97-15.48-5.94-23.21-8.91-1.33,8.83-2.66,17.66-3.99,26.5,7.27,3.28,14.54,6.57,21.81,9.85,1.8-9.14,3.6-18.29,5.39-27.43h0Z"/>
        <path class="cls-1" d="M394.82,50.95c-7.74-2.97-15.48-5.94-23.21-8.91-1.33,8.83-2.66,17.66-3.99,26.5,7.27,3.28,14.54,6.57,21.81,9.85,1.8-9.14,3.6-18.29,5.39-27.43h0Z"/>
        <path class="cls-1" d="M553.13,138.79c-1.89-18.71-3.36-33.21-14.66-44.07-10.63-10.21-28.98-16.26-45.25-9.86-9.48,3.73-15.2,10.49-17.9,14.24-.68-1.81-1.96-4.54-4.38-7.19-5.19-5.68-11.84-6.84-14.07-7.19-11.58-1.84-20.41,5.33-21.88,6.57-2.86-1.8-5.71-3.6-8.57-5.39-2.57-.49-5.15-.99-7.72-1.48-.91,13.07-1.81,26.15-2.72,39.22-.84,5.12-3.44,14.18-11.69,20.18-2,1.46-10.23,7.37-15.58,4.57-5.92-3.1-4.94-16.16-3.38-37.07,.53-7.07,1.23-12.8,1.73-16.43-6.55-4.14-13.1-8.28-19.66-12.42-.52,2.51-1.22,6.25-1.86,10.82h0c-1.79,6.57-9.11,30.32-32.31,43.51-16.29,9.27-43.51,14.97-55.72,2.66-8.08-8.15-8.57-22.13-8.29-37.6,.17-9.38,1.19-17.13,2.11-22.51,14.17,5.09,28.33,10.19,42.5,15.28,1.15-9.08,2.31-18.16,3.46-27.24-14.6-4.08-29.19-8.16-43.79-12.24,.46-4.44,.99-8.96,1.59-13.56,1.15-8.82,2.47-17.33,3.93-25.51-7.2-4.86-14.39-9.72-21.59-14.58-.73,4.42-1.91,11.77-3.22,20.87-10.77,74.74-6.4,99.13-1.2,110.55-1.22,2.57-3.89,7.23-9.19,10.91-2.36,1.64-10.47,7.25-15.58,4.57-5.92-3.1-4.94-16.16-3.38-37.07,.53-7.07,1.23-12.8,1.73-16.43-6.55-4.14-13.1-8.28-19.66-12.42-.55,2.7-1.33,6.8-2.01,11.84-1.82,13.55-3.76,28.03-.7,41.15-5.58,4.4-14.83,10.13-22.22,6.96-5.79-2.48-7.99-9.34-8.96-12.63-6.25-21.13,8.6-104.44,10.24-113.49-7.2-4.86-14.39-9.72-21.59-14.58-.59,2.12-1.19,4.25-1.78,6.37,0,0-16.94,63.03-4.88,117.91,.18,.8,.87,3.81,2.31,7.78h0c-1.32,2.4-4.07,6.64-9.11,10.05-2.64,1.79-10.61,7.18-15.58,4.57-5.92-3.1-4.94-16.16-3.38-37.07,.53-7.07,1.23-12.8,1.73-16.43-6.55-4.14-13.1-8.28-19.66-12.42-.55,2.7-1.33,6.8-2.01,11.84-2.56,19.06-5.36,39.97,5.84,56.31,2.3,3.35,4.9,6.98,9.61,9.85,11.12,6.76,28.14,3.45,44.29-7.13,2.84,2.99,7.03,6.49,12.77,8.65h0c.53,.23,8.69,2.68,15.35,1.86,4.92-.6,11.27-3.26,17.36-8.24,1.55,1.73,3.4,3.4,5.82,4.86,11.65,7.08,29.78,3.13,46.59-8.67,2.63,2.36,5.73,4.63,9.37,6.56,23.57,12.46,57.5,3.82,88.86-20.94,1.27,4.62,3.21,9.06,6.04,13.2,2.3,3.35,4.9,6.98,9.61,9.85,10.13,6.16,25.15,3.97,39.95-4.46,4.11,2.66,8.22,5.33,12.32,7.99-.03-3.98-.14-36.95,5.39-50.14,2.1-5,4.8-6.67,5.87-7.24,0,0,5.09-2.68,11.9,.07,9.03,3.65,12.64,23.13,9.98,47.77,6.88,3.18,13.76,6.37,20.63,9.55-1.45-12.38-1.6-23.05-1.32-31.41,.7-20.74,3.97-25.15,5.8-27.16,6.31-6.93,18.21-10.21,26.48-6.11,10.88,5.4,11.78,21.72,12.49,34.79,.47,8.53-.47,15.66-1.42,20.59,8.08,3.1,16.16,6.2,24.24,9.31,.57-5.83,1.04-14.62-.03-25.2v-.05Z"/>
      </g>
    </g>
  </g>
</svg>